<svg id="Layer_1" data-name="Layer 1" xmlns="http://www.w3.org/2000/svg" viewBox="0 0 202.97 54.53"><defs><style>.cls-1{fill:#fff;}</style></defs><title>MarkMonitor_Brandmark_RGB_White</title><path class="cls-1" d="M60.66,36.72h3.76V17.79H59.35L55.13,28.53,51,17.79H45.68V36.72h3.65V23.34l3.73,9.33h4l3.62-9.33Zm12.7-4.43A1.91,1.91,0,0,1,72.63,34a2.84,2.84,0,0,1-1.68.51,1.87,1.87,0,0,1-1.28-.42,1.33,1.33,0,0,1-.47-1,1.18,1.18,0,0,1,.46-1,2.1,2.1,0,0,1,1.3-.35h1.33a3.39,3.39,0,0,0,.65-.05.83.83,0,0,0,.43-.22Zm0,4.43h3.51V28.58a4.58,4.58,0,0,0-.45-2.1,3.92,3.92,0,0,0-1.19-1.42,5.12,5.12,0,0,0-1.72-.8,7.9,7.9,0,0,0-2-.26,9.28,9.28,0,0,0-2.11.23,10.69,10.69,0,0,0-1.68.52,8.5,8.5,0,0,0-1.51.75l1.38,2.64a11.12,11.12,0,0,1,1.74-.78,5.82,5.82,0,0,1,2-.38,2.5,2.5,0,0,1,1.54.4,1.29,1.29,0,0,1,.51,1.08v.14q0,.74-.87.74H70.06a5,5,0,0,0-3.28,1,3.44,3.44,0,0,0-1.2,2.83,3.79,3.79,0,0,0,.32,1.58A3.6,3.6,0,0,0,66.8,36a4.15,4.15,0,0,0,1.39.8A5.38,5.38,0,0,0,70,37a5.12,5.12,0,0,0,2-.38,3,3,0,0,0,1.41-1.11ZM84.49,27.8H86V24.28a4.06,4.06,0,0,0-1-.11,3.48,3.48,0,0,0-2,.57,3.21,3.21,0,0,0-1.22,1.57v-2H78.38V36.72h3.51V30.8a3.43,3.43,0,0,1,.62-2.31,2.54,2.54,0,0,1,2-.69m14.78,8.92L94.34,30l4.79-5.68H94.88l-3.41,4.3h-.84V17.79H87.12V36.72h3.51V31.61h.84L95,36.72Zm16.2,0h3.76V17.79h-5.06l-4.22,10.73-4.14-10.73h-5.31V36.72h3.65V23.34l3.73,9.33h4l3.62-9.33Zm14.81-6.19a3.51,3.51,0,0,1-.85,2.42,2.84,2.84,0,0,1-2.23,1,3,3,0,0,1-1.27-.26,2.85,2.85,0,0,1-1-.72,3.41,3.41,0,0,1-.63-1.07,3.76,3.76,0,0,1-.23-1.34,3.48,3.48,0,0,1,.87-2.42,2.88,2.88,0,0,1,2.24-1,3,3,0,0,1,1.24.26,2.93,2.93,0,0,1,1,.7,3.23,3.23,0,0,1,.64,1.07,3.87,3.87,0,0,1,.23,1.35m3,2.62a6.92,6.92,0,0,0,0-5.23,6.19,6.19,0,0,0-1.42-2.07,6.61,6.61,0,0,0-2.1-1.35,7.07,7.07,0,0,0-5.15,0,6.61,6.61,0,0,0-2.1,1.35,6.19,6.19,0,0,0-1.42,2.07,6.93,6.93,0,0,0,0,5.23,6.21,6.21,0,0,0,1.42,2.06,6.59,6.59,0,0,0,2.1,1.35,7.07,7.07,0,0,0,5.15,0,6.59,6.59,0,0,0,2.1-1.35,6.21,6.21,0,0,0,1.42-2.06m10,3.57h3.51V28.61a5.2,5.2,0,0,0-.34-1.93,4.12,4.12,0,0,0-.95-1.45,4,4,0,0,0-1.46-.91,5.37,5.37,0,0,0-1.85-.31,4.93,4.93,0,0,0-2.08.46,4.69,4.69,0,0,0-1.7,1.32,2,2,0,0,1,0-.32c0-.09,0-.19,0-.31s0-.23,0-.34v-.49H135V36.72h3.52v-8a4.47,4.47,0,0,1,1.18-1,2.79,2.79,0,0,1,1.45-.39,2.28,2.28,0,0,1,1.47.51,2.07,2.07,0,0,1,.64,1.7ZM153,24.34h-5.25v3h1.73v9.41H153Zm-.31-2.68a2.15,2.15,0,0,0,.66-1.6,2.28,2.28,0,0,0-.66-1.61A2.31,2.31,0,0,0,152,18a2.22,2.22,0,0,0-.89-.18,2.15,2.15,0,0,0-1.6.66,2.21,2.21,0,0,0-.65,1.61,2.22,2.22,0,0,0,2.24,2.24,2.21,2.21,0,0,0,1.61-.65m8.8,15.14,1-.08v-3l-.49.05a4.19,4.19,0,0,1-.51,0h-.62a2.12,2.12,0,0,1-.78-.15c-.25-.1-.38-.35-.38-.74v-5.6h2.68v-3h-2.68v-4.7h-3.51v4.7H154.2v3h1.95V34.1a3,3,0,0,0,.31,1.49,2.26,2.26,0,0,0,.81.84,2.93,2.93,0,0,0,1.15.38,10.49,10.49,0,0,0,1.3.08h.85q.47,0,.91-.07M173,30.53a3.51,3.51,0,0,1-.85,2.42,2.84,2.84,0,0,1-2.23,1,3,3,0,0,1-1.27-.26,2.85,2.85,0,0,1-1-.72,3.43,3.43,0,0,1-.64-1.07,3.76,3.76,0,0,1-.23-1.34,3.48,3.48,0,0,1,.87-2.42,2.88,2.88,0,0,1,2.24-1,3,3,0,0,1,1.24.26,2.94,2.94,0,0,1,1,.7,3.24,3.24,0,0,1,.64,1.07,3.89,3.89,0,0,1,.23,1.35m3,2.62a6.93,6.93,0,0,0,0-5.23,6.2,6.2,0,0,0-1.42-2.07,6.61,6.61,0,0,0-2.1-1.35,7.07,7.07,0,0,0-5.15,0,6.61,6.61,0,0,0-2.1,1.35,6.2,6.2,0,0,0-1.42,2.07,6.93,6.93,0,0,0,0,5.23,6.21,6.21,0,0,0,1.42,2.06,6.6,6.6,0,0,0,2.1,1.35,7.07,7.07,0,0,0,5.15,0,6.6,6.6,0,0,0,2.1-1.35A6.22,6.22,0,0,0,176,33.15m8.37-9a3.48,3.48,0,0,0-2,.57,3.21,3.21,0,0,0-1.22,1.57v-2h-3.41V36.72h3.51V30.8a3.43,3.43,0,0,1,.62-2.31,2.54,2.54,0,0,1,2-.69h1.49V24.28a4.06,4.06,0,0,0-1-.11m1-5.5h1.16v-.88h-3.25v.88h1.15v2.39h.94Zm5.18,2.39V17.79h-1.23l-.63,1.6-.62-1.6h-1.25v3.27h.93V19l.62,1.5h.6l.62-1.51v2.09Z"/><path class="cls-1" d="M26.81,33v8.65a.49.49,0,0,0,1,0V33a.49.49,0,0,0-1,0"/><path class="cls-1" d="M28.5,32.76l2.72,8.35a.49.49,0,0,0,.93-.3l-2.72-8.35a.49.49,0,0,0-.93.3"/><path class="cls-1" d="M30.05,32l5,6.93a.42.42,0,0,0,.59.09.44.44,0,0,0,.09-.61l-5-6.93a.42.42,0,0,0-.59-.09.44.44,0,0,0-.09.61"/><path class="cls-1" d="M31.26,30.87l6.53,4.73a.42.42,0,0,0,.49-.68L31.75,30.2a.42.42,0,0,0-.49.68"/><path class="cls-1" d="M32.13,29.48l7,2.29a.41.41,0,0,0,.25-.77l-7-2.29a.41.41,0,0,0-.25.77"/><path class="cls-1" d="M32.48,27.83h6.69a.36.36,0,0,0,0-.73H32.48a.36.36,0,0,0,0,.73"/><path class="cls-1" d="M32.4,26.21l5.71-1.87a.37.37,0,0,0-.23-.7l-5.71,1.87a.37.37,0,0,0,.23.7"/><path class="cls-1" d="M31.79,24.66,36,21.59a.37.37,0,0,0,.09-.5.34.34,0,0,0-.48-.09l-4.2,3.08a.37.37,0,0,0-.09.5.34.34,0,0,0,.48.09"/><path class="cls-1" d="M30.67,23.32l2.81-3.86a.3.3,0,0,0-.05-.42.28.28,0,0,0-.4,0L30.21,23a.3.3,0,0,0,.05.42.28.28,0,0,0,.4,0"/><path class="cls-1" d="M29.25,22.37l1.38-4.26a.28.28,0,0,0-.53-.17L28.72,22.2a.28.28,0,0,0,.53.17"/><path class="cls-1" d="M22.67,28.41l-9.15,3a.54.54,0,0,0,.34,1l9.15-3a.54.54,0,0,0-.34-1"/><path class="cls-1" d="M22.92,30l-7.52,5.47a.53.53,0,0,0,.62.85l7.52-5.47a.53.53,0,0,0-.62-.85"/><path class="cls-1" d="M23.73,31.48l-5.22,7.18a.51.51,0,0,0,.83.6l5.22-7.18a.51.51,0,0,0-.83-.6"/><path class="cls-1" d="M25.12,32.59l-2.66,8.23a.49.49,0,0,0,.93.3l2.66-8.23a.49.49,0,0,0-.93-.3"/><path class="cls-1" d="M27.3,25.11a.68.68,0,0,0,.68-.68V13.06a.68.68,0,0,0-1.36,0V23.23L23.48,13.6A.67.67,0,0,0,22.2,14l3.19,9.78-6.07-8.33a.62.62,0,0,0-1,.72l6.13,8.43-8.38-6.1a.65.65,0,0,0-.76,1l8.36,6.08-9.81-3.19a.64.64,0,0,0-.39,1.21l9.89,3.21H13a.61.61,0,0,0,0,1.22H23a.61.61,0,0,0,.5-.27,4.89,4.89,0,0,1,1.5-2A4,4,0,0,1,27.3,25.11Z"/></svg>